<svg width="34" height="28" viewBox="0 0 34 28" fill="none" xmlns="http://www.w3.org/2000/svg">
<path d="M27.4173 15.2609V12.7609H33.6673V15.2609H27.4173ZM29.5006 27.3442L24.459 23.5942L25.959 21.5942L31.0006 25.3442L29.5006 27.3442ZM26.084 6.38588L24.584 4.38588L29.5006 0.677551L31.0006 2.67755L26.084 6.38588ZM5.75065 25.6775V19.0109H2.83398C2.14648 19.0109 1.55794 18.7661 1.06836 18.2765C0.578776 17.7869 0.333984 17.1984 0.333984 16.5109V11.5109C0.333984 10.8234 0.578776 10.2348 1.06836 9.74526C1.55794 9.25568 2.14648 9.01088 2.83398 9.01088H10.334L18.6673 4.01088V24.0109L10.334 19.0109H8.25065V25.6775H5.75065ZM20.334 19.5942V8.42755C21.084 9.09422 21.6882 9.90672 22.1465 10.8651C22.6048 11.8234 22.834 12.872 22.834 14.0109C22.834 15.1498 22.6048 16.1984 22.1465 17.1567C21.6882 18.115 21.084 18.9275 20.334 19.5942ZM2.83398 11.5109V16.5109H11.0007L16.1673 19.5942V8.42755L11.0007 11.5109H2.83398Z" fill="black"/>
</svg>
